# xmcd CD database file
#
# Track frame offsets:
#	150
#	16757
#	43892
#	72115
#	92092
#	108817
#	119480
#	157405
#	179625
#	193215
#	219207
#
# Disc length: 3204 seconds
#
# Revision: 0
# Processed by: cddbd v1.5.2PL0 Copyright (c) Steve Scherf et al.
# Submitted via: CDex 1.70beta2
#
DISCID=9c0c820b
DTITLE=The Blues Corporation - ...Holding On
DYEAR=1995
DGENRE=Blues
TTITLE0=Blues Feeling
TTITLE1=Have you ever heard of Bobby Bland
TTITLE2=Best Friends Girl
TTITLE3=Unforeseen Circumstances
TTITLE4=Dying for the love of you
TTITLE5=You just ain' satisfied
TTITLE6=Holding on
TTITLE7=Hear me howling
TTITLE8=It's tight like that
TTITLE9=Sacrifice
TTITLE10=Slow Seduction
EXTD=YEAR: 1995
EXTT0=
EXTT1=
EXTT2=
EXTT3=
EXTT4=
EXTT5=
EXTT6=
EXTT7=
EXTT8=
EXTT9=
EXTT10=
PLAYORDER=
